<?xml version="1.0" standalone="no"?>
<!DOCTYPE svg PUBLIC "-//W3C//DTD SVG 20010904//EN"
 "http://www.w3.org/TR/2001/REC-SVG-20010904/DTD/svg10.dtd">
<svg version="1.0" xmlns="http://www.w3.org/2000/svg"
 width="900.000000pt" height="900.000000pt" viewBox="0 0 900.000000 900.000000"
 preserveAspectRatio="xMidYMid meet">
<metadata>
Created by potrace 1.14, written by Peter Selinger 2001-2017
</metadata>
<g transform="translate(0.000000,900.000000) scale(0.100000,-0.100000)"
fill="#000000" stroke="none">
<path d="M4288 8945 c-2 -1 -46 -5 -98 -9 -180 -12 -213 -16 -320 -32 -19 -3
-51 -7 -70 -10 -64 -9 -132 -21 -215 -38 -11 -3 -51 -12 -90 -20 -38 -9 -81
-19 -95 -22 -115 -25 -404 -118 -570 -184 -572 -227 -1078 -558 -1514 -994
-84 -83 -167 -169 -186 -192 -19 -22 -57 -66 -85 -98 -152 -177 -331 -434
-463 -663 -39 -68 -68 -123 -64 -123 4 0 2 -4 -3 -8 -6 -4 -24 -34 -39 -67
-96 -202 -120 -255 -157 -347 -114 -286 -203 -603 -253 -898 -2 -14 -7 -41
-10 -60 -13 -74 -16 -97 -22 -160 -3 -36 -8 -73 -10 -83 -17 -93 -24 -556 -10
-762 7 -105 9 -129 22 -220 3 -22 7 -58 10 -80 2 -22 11 -78 20 -125 8 -47 18
-101 21 -120 4 -29 95 -390 106 -425 2 -5 13 -39 24 -75 54 -168 131 -361 215
-536 36 -78 156 -302 191 -359 28 -47 177 -276 186 -288 6 -6 46 -60 89 -118
44 -58 90 -119 103 -134 125 -148 174 -202 319 -345 91 -91 177 -174 191 -185
45 -37 144 -120 149 -125 38 -42 413 -302 535 -371 33 -19 74 -42 90 -52 75
-43 420 -210 515 -247 171 -68 424 -153 520 -175 8 -2 51 -12 95 -24 44 -11
91 -22 105 -25 14 -2 61 -11 105 -20 158 -32 232 -43 330 -52 39 -3 73 -8 76
-10 29 -17 642 -25 819 -11 110 9 382 44 455 58 28 6 64 13 80 15 17 3 48 10
70 16 22 5 51 12 65 14 47 9 255 65 350 95 332 107 643 246 940 422 81 48 307
196 333 217 7 6 35 27 62 47 46 33 174 134 201 158 7 6 43 37 80 70 71 61 308
295 379 375 331 368 628 842 807 1289 63 157 156 433 173 511 2 8 12 51 23 95
25 97 68 314 82 410 17 126 19 139 24 190 14 131 20 268 20 460 -1 237 -7 345
-29 520 -2 17 -7 55 -10 85 -8 67 -38 238 -60 340 -9 41 -19 84 -21 96 -11 57
-88 314 -127 424 -62 173 -97 260 -162 395 -30 65 -55 121 -55 125 0 4 -7 13
-15 20 -8 7 -15 19 -15 26 0 7 -20 48 -45 90 -25 41 -45 77 -45 79 0 17 -214
344 -275 420 -17 22 -36 47 -41 56 -32 56 -268 324 -404 459 -134 133 -164
161 -276 255 -100 84 -106 89 -203 161 -47 35 -92 69 -98 74 -31 26 -279 183
-378 240 -180 102 -447 227 -650 303 -155 59 -454 148 -578 172 -10 3 -26 6
-35 9 -35 11 -348 63 -422 71 -30 3 -71 7 -90 9 -120 14 -212 19 -427 21 -133
2 -243 2 -245 0z"/>
</g>
</svg>
