<?xml version="1.0" standalone="no"?>
<!DOCTYPE svg PUBLIC "-//W3C//DTD SVG 20010904//EN"
 "http://www.w3.org/TR/2001/REC-SVG-20010904/DTD/svg10.dtd">
<svg version="1.0" xmlns="http://www.w3.org/2000/svg"
 width="700.000000pt" height="700.000000pt" viewBox="0 0 700.000000 700.000000"
 preserveAspectRatio="xMidYMid meet">
<metadata>
Created by potrace 1.14, written by Peter Selinger 2001-2017 
</metadata>
<g transform="translate(0.000000,700.000000) scale(0.100000,-0.100000)"
fill="#000000" stroke="none">
<path d="M3185 5696 c-240 -55 -447 -233 -541 -464 -64 -159 -59 15 -62 -2049
-2 -1783 -1 -1873 15 -1873 10 0 104 23 208 51 105 27 207 54 227 60 l38 10 2
1762 3 1762 23 51 c45 100 131 157 233 156 53 0 96 -19 750 -333 466 -224 707
-345 732 -368 21 -19 48 -53 60 -75 l22 -41 5 -1220 5 -1220 25 3 c23 3 288
72 418 108 l52 15 0 1160 c0 1262 2 1225 -56 1378 -54 144 -158 280 -280 367
-35 25 -136 80 -226 123 -90 43 -407 196 -705 339 -298 144 -572 271 -610 282
-87 28 -253 35 -338 16z"/>
<path d="M1825 5010 l-220 -97 -3 -1698 c-2 -1614 -1 -1697 15 -1691 10 4 118
50 241 103 l222 97 0 1693 c0 1606 -1 1693 -17 1692 -10 -1 -117 -45 -238 -99z"/>
</g>
</svg>
