<svg xmlns="http://www.w3.org/2000/svg" width="24" height="24" viewBox="0 0 24 24" fill="none">
    <path fill-rule="evenodd" clip-rule="evenodd" d="M20.3165 5.09181C18.7865 4.40181 17.1464 3.89181 15.4315 3.60181C15.4161 3.59888 15.4004 3.60076 15.3862 3.60722C15.3721 3.61366 15.3603 3.62436 15.3524 3.63781C15.1424 4.00681 14.9084 4.4878 14.7445 4.86781C12.9255 4.59604 11.0764 4.59604 9.25748 4.86781C9.07481 4.44667 8.86883 4.03604 8.64049 3.63781C8.63275 3.62419 8.62103 3.61326 8.60692 3.60648C8.5928 3.59968 8.57696 3.59736 8.56148 3.59982C6.84748 3.88981 5.20749 4.39981 3.67649 5.0908C3.66332 5.09634 3.65216 5.10576 3.64449 5.1178C0.532503 9.69279 -0.320495 14.1548 0.0985039 18.5608C0.0996698 18.5716 0.10302 18.582 0.108349 18.5915C0.113678 18.601 0.120876 18.6092 0.129504 18.6157C1.94589 19.9382 3.97183 20.9456 6.12249 21.5958C6.13748 21.6004 6.15352 21.6004 6.1685 21.5957C6.18349 21.5911 6.19672 21.582 6.20649 21.5698C6.66849 20.9497 7.08049 20.2948 7.43248 19.6068C7.45348 19.5667 7.43349 19.5187 7.39149 19.5028C6.74549 19.2595 6.11957 18.9659 5.51949 18.6247C5.5087 18.6186 5.49962 18.6098 5.49304 18.5994C5.48648 18.5888 5.48261 18.5768 5.48182 18.5645C5.48103 18.552 5.48332 18.5396 5.48851 18.5284C5.49368 18.5171 5.50159 18.5072 5.51149 18.4998C5.63749 18.4068 5.76349 18.3097 5.88349 18.2128C5.89429 18.204 5.90731 18.1985 5.92107 18.1967C5.93485 18.195 5.94884 18.197 5.96149 18.2028C9.88847 19.9668 14.1415 19.9668 18.0224 18.2028C18.0351 18.1967 18.0493 18.1944 18.0632 18.196C18.0773 18.1975 18.0905 18.203 18.1015 18.2118C18.2215 18.3097 18.3464 18.4068 18.4735 18.4998C18.4834 18.5071 18.4915 18.5168 18.4969 18.528C18.5022 18.5392 18.5047 18.5515 18.5041 18.5639C18.5035 18.5762 18.4998 18.5884 18.4934 18.5989C18.4871 18.6096 18.4782 18.6185 18.4675 18.6247C17.8694 18.9688 17.2474 19.2598 16.5944 19.5018C16.5844 19.5054 16.5753 19.5112 16.5676 19.5186C16.56 19.526 16.5541 19.535 16.5503 19.545C16.5463 19.555 16.5446 19.5656 16.5452 19.5762C16.5457 19.5869 16.5486 19.5973 16.5535 19.6068C16.9135 20.2938 17.3254 20.9478 17.7785 21.5688C17.7879 21.5815 17.801 21.591 17.816 21.596C17.831 21.6011 17.8473 21.6013 17.8624 21.5968C20.0168 20.9484 22.046 19.9405 23.8645 18.6157C23.8734 18.6096 23.8808 18.6016 23.8863 18.5922C23.8918 18.583 23.8952 18.5725 23.8964 18.5617C24.3965 13.4678 23.0584 9.04179 20.3474 5.11981C20.3408 5.10706 20.3298 5.09713 20.3165 5.09181ZM8.01949 15.8778C6.83749 15.8778 5.86249 14.8088 5.86249 13.4978C5.86249 12.1858 6.81849 11.1178 8.01949 11.1178C9.22948 11.1178 10.1955 12.1948 10.1765 13.4978C10.1765 14.8098 9.22048 15.8778 8.01949 15.8778ZM15.9944 15.8778C14.8115 15.8778 13.8374 14.8088 13.8374 13.4978C13.8374 12.1858 14.7925 11.1178 15.9944 11.1178C17.2045 11.1178 18.1705 12.1948 18.1514 13.4978C18.1514 14.8098 17.2055 15.8778 15.9944 15.8778Z" fill="#5A6475"/>
</svg>