<svg width="24" height="24" viewBox="0 0 24 24" fill="none" xmlns="http://www.w3.org/2000/svg">
<path d="M11.9999 0C10.4241 0 8.86369 0.318099 7.40778 0.93613C5.95189 1.55416 4.62902 2.46002 3.51472 3.60199C1.26428 5.9083 0 9.03634 0 12.298C0 17.7336 3.444 22.3454 8.20799 23.9809C8.80799 24.0794 8.99999 23.6982 8.99999 23.3661V21.2877C5.676 22.0256 4.96799 19.6399 4.96799 19.6399C4.416 18.2133 3.63599 17.8321 3.63599 17.8321C2.544 17.0695 3.71999 17.0942 3.71999 17.0942C4.92 17.1802 5.55599 18.3608 5.55599 18.3608C6.59999 20.2302 8.36398 19.6768 9.04798 19.3816C9.15598 18.5822 9.46799 18.041 9.80398 17.7336C7.13999 17.4262 4.344 16.3686 4.344 11.6831C4.344 10.318 4.79999 9.22346 5.57999 8.35032C5.46 8.04286 5.03999 6.76388 5.69999 5.10366C5.69999 5.10366 6.70799 4.77162 8.99999 6.35805C9.94798 6.08749 10.98 5.95222 11.9999 5.95222C13.02 5.95222 14.0519 6.08749 15 6.35805C17.2919 4.77162 18.2999 5.10366 18.2999 5.10366C18.96 6.76388 18.54 8.04286 18.42 8.35032C19.1999 9.22346 19.656 10.318 19.656 11.6831C19.656 16.3808 16.848 17.4138 14.172 17.7214C14.604 18.1026 15 18.8527 15 19.9964V23.3661C15 23.6982 15.192 24.0916 15.804 23.9809C20.5679 22.3331 24 17.7336 24 12.298C24 10.683 23.6895 9.08378 23.0865 7.59174C22.4835 6.09968 21.5995 4.74396 20.4853 3.60199C19.371 2.46002 18.0481 1.55416 16.5922 0.93613C15.1362 0.318099 13.5759 0 11.9999 0Z" fill="#000000"/>
</svg>
