<svg width="252" height="81" viewBox="0 0 252 81" fill="none" xmlns="http://www.w3.org/2000/svg">
    <path fill="black" d="M93.8352 56V27.2H98.7152L112.075 47.5V27.2H116.955V56H112.075L98.7152 35.7V56H93.8352ZM122.546 56V27.2H139.886V32.02H127.366V39.2H137.486V44H127.366V56H122.546ZM155.664 56.6C152.784 56.6 150.317 55.9733 148.264 54.72C146.21 53.4533 144.63 51.6933 143.524 49.44C142.43 47.1867 141.884 44.5733 141.884 41.6C141.884 38.6267 142.43 36.0133 143.524 33.76C144.63 31.5067 146.21 29.7533 148.264 28.5C150.317 27.2333 152.784 26.6 155.664 26.6C158.984 26.6 161.75 27.4333 163.964 29.1C166.177 30.7533 167.73 32.9867 168.624 35.8L163.764 37.14C163.204 35.26 162.25 33.7933 160.904 32.74C159.557 31.6733 157.81 31.14 155.664 31.14C153.73 31.14 152.117 31.5733 150.824 32.44C149.544 33.3067 148.577 34.5267 147.924 36.1C147.284 37.66 146.957 39.4933 146.944 41.6C146.944 43.7067 147.264 45.5467 147.904 47.12C148.557 48.68 149.53 49.8933 150.824 50.76C152.117 51.6267 153.73 52.06 155.664 52.06C157.81 52.06 159.557 51.5267 160.904 50.46C162.25 49.3933 163.204 47.9267 163.764 46.06L168.624 47.4C167.73 50.2133 166.177 52.4533 163.964 54.12C161.75 55.7733 158.984 56.6 155.664 56.6ZM173.015 56V27.2H177.835V40.56L189.335 27.2H195.255L182.875 41.32L196.095 56H189.975L177.835 42.56V56H173.015ZM198.913 56V27.2H217.513V31.72H203.733V38.82H215.113V43.34H203.733V51.48H217.513V56H198.913ZM229.312 56V44.2L219.512 27.2H225.132L231.752 38.68L238.352 27.2H243.972L234.192 44.2V56H229.312Z"/>
    <path fill="black" d="M8.55 11L0 14.7358V77H0.45L9 73.2641V53.6302V45.6742V39.9736V11H8.55Z"/>
    <path fill="black" d="M18 15.0764C18 4.19786 28.2493 -3.09189 37.3743 1.29649L61.7637 13.0257C66.7696 15.4331 70 20.8379 70 26.8056V67.6792L61.2355 70H60.7742V31.3208L60.7965 31.3149V26.8056C60.7965 24.8163 59.7196 23.0148 58.051 22.2123L33.6617 10.4831C30.62 9.0203 27.2035 11.4502 27.2035 15.0764L27.2035 78.67L18.4602 81H18V15.0764Z"/>
</svg>
