<svg xmlns="http://www.w3.org/2000/svg" width="24" height="24" viewBox="0 0 24 24" fill="none">
    <path fill-rule="evenodd" clip-rule="evenodd"
      d="M4.17241 2H13.5517C15.2619 2 16.9021 2.57946 18.1113 3.61091C19.3206 4.64236 20 6.04131 20 7.5C20 8.95869 19.3206 10.3576 18.1113 11.3891C16.9021 12.4205 15.2619 13 13.5517 13H6.51724V14.2H15.4276V16.2H6.51724V22H4.17241V16.2H3V14.2H4.17241V13H3V11H4.17241V2ZM6.51724 4H13.5517C14.64 4 15.6838 4.36875 16.4533 5.02513C17.2228 5.6815 17.6552 6.57174 17.6552 7.5C17.6552 8.42826 17.2228 9.3185 16.4533 9.97487C15.6838 10.6313 14.64 11 13.5517 11H6.51724V4Z"
      fill="#66C3D0" />
</svg>