<svg xmlns="http://www.w3.org/2000/svg" width="28" height="28" viewBox="0 0 28 28" fill="none">
    <path d="M5.83333 21.4375C6.63418 21.4375 7.40223 21.7602 7.96852 22.3345C8.5348 22.9088 8.85294 23.6878 8.85294 24.5C8.85294 23.6878 9.17108 22.9088 9.73736 22.3345C10.3036 21.7602 11.0717 21.4375 11.8725 21.4375C11.0717 21.4375 10.3036 21.1148 9.73736 20.5405C9.17108 19.9662 8.85294 19.1872 8.85294 18.375C8.85294 19.1872 8.5348 19.9662 7.96852 20.5405C7.40223 21.1148 6.63418 21.4375 5.83333 21.4375ZM3.5 6.5625C4.30085 6.5625 5.0689 6.88516 5.63518 7.45949C6.20147 8.03382 6.51961 8.81277 6.51961 9.625C6.51961 8.81277 6.83774 8.03382 7.40403 7.45949C7.97032 6.88516 8.73836 6.5625 9.53921 6.5625C8.73836 6.5625 7.97032 6.23984 7.40403 5.66551C6.83774 5.09118 6.51961 4.31223 6.51961 3.5C6.51961 4.31223 6.20147 5.09118 5.63518 5.66551C5.0689 6.23984 4.30085 6.5625 3.5 6.5625ZM16.2647 23.7708C16.2647 21.3342 17.2191 18.9973 18.918 17.2743C20.6168 15.5513 22.921 14.5833 25.3235 14.5833C22.921 14.5833 20.6168 13.6154 18.918 11.8924C17.2191 10.1694 16.2647 7.83251 16.2647 5.39583C16.2647 7.83251 15.3103 10.1694 13.6114 11.8924C11.9126 13.6154 9.60843 14.5833 7.20588 14.5833C9.60843 14.5833 11.9126 15.5513 13.6114 17.2743C15.3103 18.9973 16.2647 21.3342 16.2647 23.7708Z" stroke="#66C3D0" stroke-width="1.5" stroke-linecap="round" stroke-linejoin="round"/>
</svg>