<svg width="24" height="23" viewBox="0 0 24 23" fill="none" xmlns="http://www.w3.org/2000/svg">
    <path
        d="M3.28723 10.1456C3.28723 10.1456 12.5752 5.53561 15.7964 3.91242C17.0312 3.26314 21.2188 1.18535 21.2188 1.18535C21.2188 1.18535 23.1515 0.276494 22.9905 2.4839C22.9367 3.39293 22.5072 6.57442 22.0777 10.0157C21.4335 14.8854 20.7355 20.2094 20.7355 20.2094C20.7355 20.2094 20.6283 21.7028 19.7156 21.9626C18.8028 22.2223 17.2996 21.0536 17.0312 20.7938C16.8165 20.599 13.0047 17.6772 11.6089 16.2489C11.233 15.8593 10.8035 15.0801 11.6625 14.1711C13.5952 12.0286 15.9038 9.36639 17.2996 7.6783C17.9438 6.89906 18.5881 5.08101 15.9038 7.28859C12.092 10.4701 8.3339 13.4569 8.3339 13.4569C8.3339 13.4569 7.47502 14.1062 5.86441 13.5218C4.2538 12.9374 2.37472 12.1584 2.37472 12.1584C2.37472 12.1584 1.08635 11.1843 3.28751 10.1456H3.28723Z"
        stroke="#5A6475" stroke-width="2" />
</svg>