<svg xmlns="http://www.w3.org/2000/svg" width="24" height="24" viewBox="0 0 24 24" fill="none">
    <path fill-rule="evenodd" clip-rule="evenodd" d="M24 12C24 18.6274 18.6274 24 12 24C5.37258 24 0 18.6274 0 12C0 5.37258 5.37258 0 12 0C18.6274 0 24 5.37258 24 12ZM12.43 8.85893C11.2628 9.3444 8.93012 10.3492 5.43188 11.8733C4.86382 12.0992 4.56624 12.3203 4.53916 12.5363C4.49338 12.9016 4.95071 13.0453 5.57346 13.2412C5.65818 13.2678 5.74595 13.2954 5.83592 13.3246C6.44862 13.5238 7.27282 13.7568 7.70128 13.766C8.08993 13.7744 8.52372 13.6142 9.00263 13.2853C12.2712 11.079 13.9584 9.96384 14.0642 9.93972C14.139 9.9228 14.2426 9.90144 14.3128 9.96384C14.383 10.0262 14.376 10.1443 14.3686 10.176C14.3233 10.3692 12.5281 12.0382 11.5991 12.9018C11.3095 13.1711 11.1041 13.362 11.0621 13.4057C10.968 13.5034 10.8721 13.5958 10.78 13.6846C10.2108 14.2333 9.78384 14.6448 10.8036 15.3168C11.2937 15.6397 11.6857 15.9067 12.0769 16.1731C12.5041 16.4641 12.9302 16.7543 13.4816 17.1157C13.622 17.2078 13.7562 17.3034 13.8869 17.3965C14.384 17.751 14.8307 18.0695 15.3826 18.0186C15.7032 17.9892 16.0344 17.6876 16.2026 16.7884C16.6002 14.6632 17.3816 10.0584 17.5622 8.16097C17.5781 7.99474 17.5582 7.78198 17.5422 7.68858C17.5261 7.59518 17.4928 7.4621 17.3713 7.3636C17.2276 7.24693 17.0057 7.22233 16.9063 7.224C16.455 7.23204 15.7625 7.47282 12.43 8.85893Z" fill="#00aeed"/>
</svg>