<svg xmlns="http://www.w3.org/2000/svg" width="24" height="24" viewBox="0 0 24 24" fill="none">
    <path fill-rule="evenodd" clip-rule="evenodd" d="M1.68 1.68C1.43051e-07 3.376 0 6.088 0 11.52V12.48C0 17.904 1.43051e-07 20.616 1.68 22.32C3.376 24 6.088 24 11.52 24H12.48C17.904 24 20.616 24 22.32 22.32C24 20.624 24 17.912 24 12.48V11.52C24 6.096 24 3.384 22.32 1.68C20.624 1.43051e-07 17.912 0 12.48 0H11.52C6.096 0 3.384 1.43051e-07 1.68 1.68ZM4.048 7.304C4.176 13.544 7.296 17.288 12.768 17.288H13.088V13.72C15.096 13.92 16.616 15.392 17.224 17.288H20.064C19.7728 16.2107 19.2563 15.2072 18.5489 14.344C17.8415 13.4808 16.9591 12.7774 15.96 12.28C16.8553 11.7348 17.6286 11.0107 18.2315 10.1532C18.8344 9.29568 19.254 8.32302 19.464 7.296H16.888C16.328 9.28001 14.664 11.08 13.088 11.248V7.304H10.504V14.216C8.904 13.816 6.888 11.88 6.79999 7.304H4.048Z" fill="#0078ff"/>
</svg>